<?xml version="1.0" encoding="iso-8859-1"?>
<!-- Generator: Adobe Illustrator 23.0.1, SVG Export Plug-In . SVG Version: 6.00 Build 0)  -->
<svg version="1.1" id="&#x56FE;&#x5C42;_1" xmlns="http://www.w3.org/2000/svg" xmlns:xlink="http://www.w3.org/1999/xlink" x="0px"
	 y="0px" viewBox="0 0 885.854 90.443" style="enable-background:new 0 0 885.854 90.443;" xml:space="preserve">
<path style="fill-rule:evenodd;clip-rule:evenodd;" d="M782.224,5.451h-13.968v12.028h13.968V5.451z M28.694,19.884
	c2.796,0,4.701,0.511,5.716,1.534c1.015,1.022,1.522,2.489,1.522,4.399c0,1.292-0.321,2.435-0.964,3.431
	c-0.643,0.996-1.471,1.614-2.486,1.857l-0.258,0.069c-1.865,0.492-3.132,0.739-3.8,0.739h-6.46V19.884H28.694z M220.561,33.115
	c1.951,0,3.524,0.743,4.72,2.231c1.196,1.487,1.933,3.951,2.212,7.391h-13.968c0.232-2.77,0.778-4.855,1.637-6.254
	C216.509,34.237,218.309,33.115,220.561,33.115z M416.114,33.115c1.951,0,3.524,0.743,4.72,2.231
	c1.196,1.487,1.933,3.951,2.212,7.391h-13.968c0.232-2.77,0.778-4.855,1.637-6.254C412.062,34.237,413.861,33.115,416.114,33.115z
	 M692.481,33.115c1.951,0,3.524,0.743,4.72,2.231c1.196,1.487,1.934,3.951,2.212,7.391h-13.968c0.233-2.77,0.778-4.855,1.637-6.254
	C688.429,34.237,690.229,33.115,692.481,33.115z M560.957,34.317c1.889,0,3.488,0.892,4.796,2.675
	c1.308,1.784,1.961,4.358,1.961,7.722c0,3.364-0.624,5.88-1.871,7.548c-1.248,1.668-2.792,2.502-4.632,2.502
	c-1.938,0-3.5-0.805-4.687-2.414c-1.186-1.61-1.78-4.082-1.78-7.417c0-3.799,0.563-6.518,1.689-8.157
	C557.56,35.137,559.067,34.317,560.957,34.317z M810.386,34.317c1.889,0,3.488,0.892,4.796,2.675
	c1.308,1.784,1.961,4.358,1.961,7.722c0,3.364-0.624,5.88-1.871,7.548c-1.248,1.668-2.792,2.502-4.632,2.502
	c-1.938,0-3.5-0.805-4.687-2.414c-1.186-1.61-1.78-4.082-1.78-7.417c0-3.799,0.563-6.518,1.689-8.157
	C806.989,35.137,808.497,34.317,810.386,34.317z M637.655,19.884c4.247,0,7.287,1.248,9.122,3.745
	c1.834,2.497,2.751,7.127,2.751,13.891c0,5.109-0.41,8.803-1.231,11.082c-0.82,2.279-1.955,3.876-3.402,4.79
	c-1.448,0.914-3.885,1.372-7.312,1.372h-4.018v-34.88H637.655z M465.071,35.52c1.941,0,3.57,0.975,4.887,2.926
	c1.317,1.95,1.976,4.919,1.976,8.907c0,4.277-0.653,7.383-1.958,9.319c-1.305,1.936-2.975,2.904-5.008,2.904
	c-2.01,0-3.68-0.982-5.008-2.947c-1.329-1.965-1.993-4.999-1.993-9.102c0-4.045,0.67-7.058,2.01-9.037
	C461.316,36.51,463.015,35.52,465.071,35.52z M866.887,23.493c-3.036,0-5.61,0.655-7.722,1.965c-2.113,1.31-4.201,3.491-6.266,6.544
	v-7.472h-13.805V70.4h14.825V48.372c0-4.175,0.559-7.069,1.676-8.682c1.116-1.613,2.574-2.419,4.371-2.419
	c1.627,0,2.889,0.597,3.788,1.792c0.898,1.195,1.348,3.232,1.348,6.112V70.4H880V41.245c0-6.047-1.159-10.517-3.479-13.411
	C874.202,24.94,870.991,23.493,866.887,23.493z M289.352,5.451h-13.968V70.4h13.968V5.451z M363.583,5.451h-16.364V70.4h41.904
	V54.407h-25.54V5.451z M33.164,5.451H6V70.4h16.37V44.04h1.439c1.487,0,2.818,0.502,3.994,1.506c0.864,0.768,1.847,2.437,2.95,5.006
	L39.46,70.4h18.421l-7.951-19c-0.353-0.817-0.962-1.904-1.827-3.262l-0.386-0.598c-1.139-1.743-2.009-2.88-2.609-3.411
	c-0.887-0.797-2.303-1.595-4.245-2.392c2.423-0.679,4.329-1.536,5.721-2.57c2.183-1.625,3.898-3.744,5.145-6.358
	c1.247-2.614,1.871-5.722,1.871-9.326c0-4.135-0.815-7.642-2.446-10.522c-1.631-2.88-3.778-4.851-6.44-5.915
	C42.051,5.983,38.201,5.451,33.164,5.451z M782.224,24.695h-13.968V70.4h13.968V24.695z M76.77,23.493H61.872v29.198
	c0,6.018,1.16,10.474,3.479,13.368c2.319,2.894,5.519,4.341,9.598,4.341c3.06,0,5.64-0.648,7.741-1.944
	c2.101-1.296,4.183-3.47,6.247-6.522v7.429h13.842V23.493H87.953v22.072c0,4.175-0.565,7.069-1.694,8.682
	c-1.129,1.613-2.58,2.419-4.353,2.419c-1.627,0-2.89-0.605-3.788-1.814c-0.899-1.209-1.348-3.254-1.348-6.133V23.493z
	 M641.493,5.451H617.6V70.4h23.892c2.863,0,6.058-0.591,9.585-1.772c2.579-0.857,4.994-2.577,7.241-5.161
	c2.249-2.584,4.006-5.789,5.272-9.614c1.266-3.825,1.9-9.208,1.9-16.149c0-4.43-0.426-8.624-1.278-12.582
	c-0.852-3.958-2.225-7.428-4.117-10.411c-1.894-2.983-4.29-5.272-7.19-6.867C650.006,6.249,646.202,5.451,641.493,5.451z
	 M264.409,5.451h-13.968V70.4h13.968V5.451z M521.677,23.493c-3.036,0-5.61,0.655-7.722,1.965c-2.113,1.31-4.201,3.491-6.266,6.544
	v-7.472h-13.805V70.4h14.825V48.372c0-4.175,0.559-7.069,1.676-8.682c1.116-1.613,2.574-2.419,4.371-2.419
	c1.627,0,2.889,0.597,3.788,1.792c0.898,1.195,1.348,3.232,1.348,6.112V70.4h14.898V41.245c0-6.047-1.159-10.517-3.479-13.411
	C528.992,24.94,525.781,23.493,521.677,23.493z M692.891,22.29c-6.686,0-11.926,2.281-15.721,6.842
	c-3.795,4.561-5.693,10.529-5.693,17.904c0,5.183,0.946,9.692,2.838,13.528c1.892,3.835,4.277,6.634,7.156,8.397
	c2.879,1.762,6.829,2.643,11.85,2.643c5.782,0,10.219-1.029,13.313-3.088c3.093-2.058,5.734-5.457,7.923-10.196l-14.311-1.644
	c-0.905,1.422-1.749,2.414-2.534,2.977c-1.285,0.888-2.641,1.333-4.069,1.333c-2.261,0-4.093-1.022-5.496-3.065
	c-1-1.422-1.63-3.584-1.892-6.486h29.123V49.39c0-6.22-0.821-11.27-2.462-15.149c-1.642-3.88-4.034-6.842-7.175-8.885
	C702.599,23.312,698.317,22.29,692.891,22.29z M739.694,22.29c-4.348,0-7.814,0.555-10.399,1.665
	c-2.584,1.11-4.613,2.789-6.087,5.038c-1.473,2.249-2.21,4.927-2.21,8.034c0,2.841,0.682,5.371,2.047,7.59
	c1.365,2.219,3.043,3.795,5.036,4.727c1.822,0.852,4.951,1.773,9.387,2.761l1.6,0.349c3.244,0.709,5.251,1.308,6.023,1.795
	c1.111,0.71,1.666,1.716,1.666,3.018c0,1.154-0.422,2.116-1.268,2.885c-1.086,1.036-2.62,1.553-4.601,1.553
	c-1.811,0-3.261-0.459-4.348-1.376c-1.087-0.917-1.932-2.441-2.536-4.572l-14.638,1.687c0.845,4.527,2.76,8.019,5.743,10.475
	c2.983,2.456,7.989,3.684,15.019,3.684c4.976,0,8.907-0.762,11.793-2.286c2.886-1.524,5-3.573,6.34-6.147
	c1.341-2.574,2.011-5.223,2.011-7.945c0-2.693-0.635-5.164-1.903-7.412c-1.268-2.249-3.098-3.98-5.488-5.193
	c-2.238-1.135-5.573-2.037-10.009-2.706l-1.264-0.184c-3.05-0.461-5.04-0.977-5.973-1.549c-0.967-0.592-1.45-1.465-1.45-2.619
	c0-1.036,0.38-1.916,1.141-2.641c0.761-0.725,1.974-1.087,3.642-1.087c1.642,0,3.043,0.473,4.202,1.42
	c0.846,0.71,1.45,1.82,1.812,3.329l13.986-1.687c-0.967-3.077-2.18-5.519-3.642-7.324c-1.462-1.805-3.285-3.137-5.471-3.995
	c-2.044-0.803-5.141-1.23-9.29-1.282L739.694,22.29z M464.842,22.29c-6.693,0-12.006,2.332-15.941,6.997
	C444.967,33.952,443,39.883,443,47.08c0,7.73,2.327,13.979,6.981,18.748c3.79,3.85,8.756,5.775,14.897,5.775
	c6.885,0,12.276-2.318,16.174-6.953c3.898-4.635,5.847-10.581,5.847-17.837c0-6.457-1.571-11.891-4.714-16.304
	C478.276,25.029,472.494,22.29,464.842,22.29z M415.526,22.29c-6.686,0-11.927,2.281-15.722,6.842
	c-3.795,4.561-5.693,10.529-5.693,17.904c0,5.183,0.946,9.692,2.837,13.528c1.892,3.835,4.277,6.634,7.156,8.397
	c2.879,1.762,6.829,2.643,11.849,2.643c5.782,0,10.219-1.029,13.313-3.088c3.093-2.058,5.734-5.457,7.923-10.196l-14.312-1.644
	c-0.904,1.422-1.749,2.414-2.534,2.977c-1.285,0.888-2.641,1.333-4.069,1.333c-2.26,0-4.093-1.022-5.496-3.065
	c-0.999-1.422-1.63-3.584-1.892-6.486h29.124V49.39c0-6.22-0.821-11.27-2.463-15.149c-1.642-3.88-4.033-6.842-7.174-8.885
	C425.234,23.312,420.951,22.29,415.526,22.29z M128.094,22.29c-4.348,0-7.814,0.555-10.399,1.665
	c-2.585,1.11-4.614,2.789-6.087,5.038c-1.473,2.249-2.21,4.927-2.21,8.034c0,2.841,0.682,5.371,2.047,7.59
	c1.365,2.219,3.044,3.795,5.036,4.727c1.822,0.852,4.951,1.773,9.388,2.761l1.6,0.349c3.243,0.709,5.251,1.308,6.023,1.795
	c1.111,0.71,1.667,1.716,1.667,3.018c0,1.154-0.423,2.116-1.268,2.885c-1.087,1.036-2.621,1.553-4.601,1.553
	c-1.812,0-3.261-0.459-4.348-1.376c-1.087-0.917-1.932-2.441-2.536-4.572l-14.638,1.687c0.845,4.527,2.76,8.019,5.743,10.475
	c2.983,2.456,7.989,3.684,15.018,3.684c4.976,0,8.907-0.762,11.794-2.286c2.887-1.524,5-3.573,6.341-6.147
	c1.341-2.574,2.011-5.223,2.011-7.945c0-2.693-0.634-5.164-1.902-7.412c-1.268-2.249-3.098-3.98-5.489-5.193
	c-2.237-1.135-5.573-2.037-10.009-2.706l-0.933-0.135c-3.237-0.474-5.338-1.006-6.304-1.598c-0.966-0.592-1.449-1.465-1.449-2.619
	c0-1.036,0.38-1.916,1.141-2.641c0.761-0.725,1.975-1.087,3.641-1.087c1.643,0,3.044,0.473,4.203,1.42
	c0.845,0.71,1.449,1.82,1.812,3.329l13.986-1.687c-0.966-3.077-2.18-5.519-3.641-7.324c-1.462-1.805-3.285-3.137-5.471-3.995
	c-2.045-0.803-5.142-1.23-9.29-1.282L128.094,22.29z M218.976,22.29c-6.686,0-11.927,2.281-15.722,6.842
	c-3.795,4.561-5.693,10.529-5.693,17.904c0,5.183,0.946,9.692,2.837,13.528c1.892,3.835,4.277,6.634,7.156,8.397
	c2.879,1.762,6.829,2.643,11.849,2.643c5.782,0,10.219-1.029,13.313-3.088c3.093-2.058,5.734-5.457,7.923-10.196l-14.312-1.644
	c-0.904,1.422-1.749,2.414-2.534,2.977c-1.285,0.888-2.641,1.333-4.069,1.333c-2.26,0-4.093-1.022-5.496-3.065
	c-0.999-1.422-1.63-3.584-1.892-6.486h29.124V49.39c0-6.22-0.821-11.27-2.463-15.149c-1.642-3.88-4.033-6.842-7.174-8.885
	C228.684,23.312,224.401,22.29,218.976,22.29z M173.989,22.29c-4.348,0-7.814,0.555-10.399,1.665
	c-2.585,1.11-4.614,2.789-6.087,5.038c-1.473,2.249-2.21,4.927-2.21,8.034c0,2.841,0.682,5.371,2.047,7.59
	c1.365,2.219,3.044,3.795,5.036,4.727c1.822,0.852,4.951,1.773,9.388,2.761l1.6,0.349c3.243,0.709,5.251,1.308,6.023,1.795
	c1.111,0.71,1.667,1.716,1.667,3.018c0,1.154-0.423,2.116-1.268,2.885c-1.087,1.036-2.621,1.553-4.601,1.553
	c-1.812,0-3.261-0.459-4.348-1.376c-1.087-0.917-1.932-2.441-2.536-4.572l-14.638,1.687c0.845,4.527,2.76,8.019,5.743,10.475
	c2.983,2.456,7.989,3.684,15.018,3.684c4.976,0,8.907-0.762,11.794-2.286c2.887-1.524,5-3.573,6.341-6.147
	c1.341-2.574,2.011-5.223,2.011-7.945c0-2.693-0.634-5.164-1.902-7.412c-1.268-2.249-3.098-3.98-5.489-5.193
	c-2.237-1.135-5.573-2.037-10.009-2.706l-0.933-0.135c-3.237-0.474-5.338-1.006-6.304-1.598c-0.966-0.592-1.449-1.465-1.449-2.619
	c0-1.036,0.38-1.916,1.141-2.641c0.761-0.725,1.975-1.087,3.641-1.087c1.643,0,3.044,0.473,4.203,1.42
	c0.845,0.71,1.449,1.82,1.812,3.329l13.986-1.687c-0.966-3.077-2.18-5.519-3.641-7.324c-1.461-1.805-3.285-3.137-5.471-3.995
	c-2.045-0.803-5.142-1.23-9.29-1.282L173.989,22.29z M556.307,22.29c-4.628,0-8.374,1.855-11.236,5.566
	c-2.862,3.71-4.294,9.105-4.294,16.184c0,6.194,1.11,11.174,3.328,14.942c3.125,5.309,7.228,7.963,12.31,7.963
	c2.6,0,5.022-0.714,7.264-2.141c1.431-0.913,2.862-2.383,4.294-4.41v6.893c0,3.339-0.519,5.68-1.557,7.021
	c-1.039,1.342-2.607,2.012-4.706,2.012c-1.622,0-2.97-0.442-4.044-1.327c-0.739-0.599-1.288-1.684-1.646-3.254l-14.135-1.927
	c-0.037,0.755-0.06,1.389-0.068,1.902l-0.004,0.41c0,4.595,1.426,8.263,4.276,11.003c2.851,2.74,8.093,4.11,15.728,4.11
	c3.339,0,6.304-0.357,8.893-1.07c2.588-0.714,4.723-1.87,6.405-3.468c1.681-1.598,3.029-3.689,4.044-6.272
	c1.014-2.583,1.521-5.302,1.521-8.156l-0.036-2.012V23.317h-13.634v6.722c-1.67-2.769-3.465-4.752-5.386-5.951
	C561.704,22.889,559.265,22.29,556.307,22.29z M803.741,22.29c-4.628,0-8.374,1.855-11.236,5.566
	c-2.862,3.71-4.294,9.105-4.294,16.184c0,6.194,1.11,11.174,3.328,14.942c3.125,5.309,7.228,7.963,12.31,7.963
	c2.6,0,5.022-0.714,7.264-2.141c1.431-0.913,2.862-2.383,4.294-4.41v6.893c0,3.339-0.519,5.68-1.557,7.021
	c-1.039,1.342-2.607,2.012-4.706,2.012c-1.622,0-2.97-0.442-4.044-1.327c-0.739-0.599-1.288-1.684-1.646-3.254l-14.135-1.927
	c-0.037,0.755-0.06,1.389-0.068,1.902l-0.004,0.41c0,4.595,1.426,8.263,4.276,11.003c2.851,2.74,8.093,4.11,15.728,4.11
	c3.339,0,6.304-0.357,8.893-1.07c2.588-0.714,4.723-1.87,6.405-3.468c1.681-1.598,3.029-3.689,4.044-6.272
	c1.014-2.583,1.521-5.302,1.521-8.156l-0.036-2.012V23.317h-13.634v6.722c-1.67-2.769-3.465-4.752-5.386-5.951
	C809.138,22.889,806.699,22.29,803.741,22.29z"/>
</svg>
