<?xml version="1.0" encoding="iso-8859-1"?>
<!-- Generator: Adobe Illustrator 23.0.1, SVG Export Plug-In . SVG Version: 6.00 Build 0)  -->
<svg version="1.1" id="&#x56FE;&#x5C42;_1" xmlns="http://www.w3.org/2000/svg" xmlns:xlink="http://www.w3.org/1999/xlink" x="0px"
	 y="0px" viewBox="0 0 64 64" style="enable-background:new 0 0 64 64;" xml:space="preserve">
<g>
	<polygon points="28.832,26.374 28.168,25.627 18.748,34 28.168,42.374 28.832,41.626 20.815,34.5 44.805,34.5 44.805,33.5 
		20.815,33.5 	"/>
	<path d="M32,4.5C16.285,4.5,3.5,17.285,3.5,33S16.285,61.5,32,61.5S60.5,48.715,60.5,33S47.715,4.5,32,4.5z M32,60.5
		C16.836,60.5,4.5,48.163,4.5,33C4.5,17.836,16.836,5.5,32,5.5c15.163,0,27.5,12.336,27.5,27.5C59.5,48.163,47.163,60.5,32,60.5z"/>
</g>
</svg>
