<?xml version="1.0" encoding="iso-8859-1"?>
<!-- Generator: Adobe Illustrator 23.0.1, SVG Export Plug-In . SVG Version: 6.00 Build 0)  -->
<svg version="1.1" id="&#x56FE;&#x5C42;_1" xmlns="http://www.w3.org/2000/svg" xmlns:xlink="http://www.w3.org/1999/xlink" x="0px"
	 y="0px" viewBox="0 0 24 24" style="enable-background:new 0 0 24 24;" xml:space="preserve">
<path style="fill-rule:evenodd;clip-rule:evenodd;fill:#231815;" d="M17.472,4.738c-0.763,0-1.382,0.624-1.382,1.393
	c0,0.77,0.619,1.393,1.382,1.393s1.382-0.624,1.382-1.393S18.236,4.738,17.472,4.738z M16.873,2.499c1.714,0,3.188,1.093,3.844,2.66
	l2.082-0.415L21.65,6.47L23,6.878l-2.045,1.191c-0.163,0.698-0.479,1.331-0.908,1.856c2.021,4.057,0.886,10.626-4.257,12.21
	c-0.994,0.194-2.659,0.506-4.689,0.291c-0.854-0.104-1.796-0.444-2.677-1.011c-0.794-0.023-1.32-0.089-2.099-0.282
	c-1.08-0.16-2.97-1.065-3.471-2.29c-0.07-0.171-0.159-0.307-0.078-0.479c0.081-0.172,0.237-0.109,0.364-0.113
	c0.858-0.025,1.631-0.244,2.319-0.659c-0.243-0.738-0.382-1.555-0.382-2.451c0-0.158,0.006-0.315,0.019-0.47
	c-1.147-0.201-2.023-1.278-2.023-2.576c0-0.166,0.014-0.329,0.042-0.486c-0.827-0.293-1.424-1.134-1.424-2.126
	c0-0.305,0.057-0.597,0.159-0.862C1.351,8.397,1,7.865,1,7.244C1,6.42,1.619,5.751,2.382,5.751c0.263,0,0.509,0.079,0.718,0.217
	L3.092,5.951l0.032,0.034c0.148,0.102,0.277,0.234,0.38,0.388c1.14,1.107,2.383,1.747,3.73,1.921
	c2.181,0.192,3.884-0.054,5.107-0.737l0.211-0.125l-0.097,0.17c0.089-0.099,0.158-0.243,0.217-0.411l-0.005-0.208
	C12.667,4.507,14.55,2.499,16.873,2.499z"/>
</svg>
