<?xml version="1.0" encoding="iso-8859-1"?>
<!-- Generator: Adobe Illustrator 23.0.1, SVG Export Plug-In . SVG Version: 6.00 Build 0)  -->
<svg version="1.1" id="&#x56FE;&#x5C42;_1" xmlns="http://www.w3.org/2000/svg" xmlns:xlink="http://www.w3.org/1999/xlink" x="0px"
	 y="0px" viewBox="0 0 128 128" style="enable-background:new 0 0 128 128;" xml:space="preserve">
<path d="M117.291,21H10.709C4.794,21.013,0.004,25.766,0,31.627v64.762c0.004,5.859,4.796,10.607,10.709,10.612h106.582
	c2.841,0.002,5.566-1.115,7.575-3.106c2.009-1.99,3.136-4.691,3.134-7.506V31.627c0.004-2.817-1.122-5.52-3.131-7.513
	C122.86,22.12,120.134,21,117.291,21z M114.325,29.295L72.197,66.316c-1.602,2.989-4.739,4.857-8.154,4.857
	c-3.415,0-6.551-1.868-8.154-4.857L13.745,29.295H114.325z M7.525,94.403v-58.96l33.454,29.072L7.525,94.403z M14.778,98.589
	l32.538-28.633l5.327,4.617c6.62,5.418,16.188,5.418,22.807,0l5.327-4.617l32.538,28.633H14.778z M120.568,94.403L87.122,64.531
	l33.454-29.064v58.967L120.568,94.403z"/>
</svg>
