<?xml version="1.0" encoding="iso-8859-1"?>
<!-- Generator: Adobe Illustrator 23.0.1, SVG Export Plug-In . SVG Version: 6.00 Build 0)  -->
<svg version="1.1" id="&#x56FE;&#x5C42;_1" xmlns="http://www.w3.org/2000/svg" xmlns:xlink="http://www.w3.org/1999/xlink" x="0px"
	 y="0px" viewBox="0 0 24 24" style="enable-background:new 0 0 24 24;" xml:space="preserve">
<path style="fill:#231815;" d="M14.519,2.246c-0.514,0-0.931,0.399-0.931,0.891c0,0.492,0.417,0.891,0.931,0.891
	c0.514,0,0.931-0.399,0.931-0.891C15.45,2.645,15.034,2.246,14.519,2.246z M14.393,1.092c0.781,0,1.553,0.174,2.259,0.51
	c0.162,1.449-0.154,2.769-0.946,3.958c-0.232,0.634-0.852,0.86-1.331,1.331c-1.782-0.741-3.119-2.428-3.463-4.479
	C11.839,1.59,13.058,1.092,14.393,1.092z M10.272,3.084l0.113-0.137c0.473,2.015,1.828,3.663,3.608,4.459
	c-0.146,0.284-0.237,0.648-0.236,1.14c0,4.011-0.057,8.681-0.17,14.01c-0.759,0.235-1.539,0.352-2.34,0.352
	c-0.801,0-1.505-0.117-2.113-0.352V6.349C9.135,5.115,9.561,3.981,10.272,3.084l0.113-0.137L10.272,3.084z M10.962,9.562
	c2.624,0.004,4.536-0.107,5.736-0.333c0.92-0.173,1.302,1.705,0.35,2.724c-0.911,0.975-3.307,0.876-5.439,0.139
	C10.755,11.358,10.539,10.514,10.962,9.562z M11.35,12.311c-2.224,0.651-4.681,0.635-5.556-0.409
	C4.879,10.812,5.38,8.906,6.311,9.128c1.215,0.29,3.165,0.498,5.849,0.622C12.537,10.747,12.267,11.601,11.35,12.311z"/>
</svg>
