<?xml version="1.0" encoding="iso-8859-1"?>
<!-- Generator: Adobe Illustrator 23.0.1, SVG Export Plug-In . SVG Version: 6.00 Build 0)  -->
<svg version="1.1" id="&#x56FE;&#x5C42;_1" xmlns="http://www.w3.org/2000/svg" xmlns:xlink="http://www.w3.org/1999/xlink" x="0px"
	 y="0px" viewBox="0 0 24 24" style="enable-background:new 0 0 24 24;" xml:space="preserve">
<path style="fill:#231815;" d="M17.938,8.695c-0.371,0.214-0.829,0.214-1.2,0c-0.371-0.214-0.6-0.61-0.6-1.039
	c0-0.663,0.537-1.2,1.2-1.2c0.663,0,1.2,0.537,1.2,1.2C18.538,8.085,18.31,8.481,17.938,8.695z M6.865,12.994
	c0,2.836,2.299,5.135,5.135,5.135c2.836,0,5.135-2.299,5.135-5.135c0-2.836-2.299-5.135-5.135-5.135
	C9.164,7.859,6.865,10.158,6.865,12.994z M8.667,12.994c0-1.841,1.492-3.333,3.333-3.333c1.841,0,3.333,1.492,3.333,3.333
	c0,1.841-1.492,3.333-3.333,3.333C10.16,16.327,8.667,14.835,8.667,12.994z M16.04,4.854c0.976,0.045,1.505,0.207,1.858,0.344
	c0.466,0.182,0.8,0.399,1.15,0.748c0.35,0.35,0.566,0.684,0.748,1.15c0.136,0.353,0.3,0.882,0.344,1.857
	c0.048,1.055,0.058,1.37,0.058,4.041c0,2.67-0.01,2.986-0.058,4.04c-0.045,0.976-0.208,1.505-0.344,1.858
	c-0.16,0.434-0.416,0.827-0.748,1.15c-0.35,0.35-0.684,0.566-1.15,0.748c-0.353,0.136-0.882,0.3-1.857,0.344
	c-1.054,0.048-1.37,0.058-4.041,0.058c-2.67,0-2.987-0.01-4.04-0.058c-0.976-0.045-1.505-0.208-1.858-0.344
	c-0.434-0.16-0.827-0.416-1.15-0.748c-0.332-0.323-0.588-0.716-0.748-1.15c-0.137-0.353-0.3-0.882-0.344-1.857
	c-0.048-1.055-0.058-1.37-0.058-4.041c0-2.67,0.01-2.986,0.058-4.04c0.045-0.976,0.207-1.505,0.344-1.858
	c0.182-0.466,0.399-0.8,0.748-1.15c0.35-0.35,0.684-0.566,1.15-0.748c0.353-0.137,0.882-0.3,1.857-0.344
	C9.014,4.806,9.329,4.796,12,4.796C14.67,4.796,14.986,4.806,16.04,4.854z M7.877,3.054C6.813,3.103,6.086,3.272,5.45,3.519
	C4.783,3.77,4.178,4.164,3.678,4.673c-0.509,0.5-0.902,1.105-1.153,1.772C2.278,7.08,2.109,7.807,2.06,8.871
	C2.011,9.938,2,10.279,2,12.994c0,2.716,0.011,3.056,0.06,4.123c0.049,1.064,0.218,1.791,0.465,2.427
	c0.251,0.667,0.644,1.272,1.153,1.772c0.5,0.509,1.105,0.902,1.772,1.153c0.636,0.247,1.363,0.416,2.427,0.465
	c1.067,0.048,1.407,0.06,4.123,0.06c2.716,0,3.056-0.012,4.123-0.06c1.064-0.049,1.791-0.218,2.427-0.465
	c0.667-0.251,1.272-0.644,1.772-1.153c0.509-0.5,0.902-1.104,1.153-1.772c0.247-0.636,0.416-1.363,0.465-2.427
	C21.988,16.05,22,15.71,22,12.994c0-2.716-0.012-3.056-0.06-4.123c-0.049-1.064-0.218-1.791-0.465-2.427
	c-0.251-0.668-0.644-1.272-1.153-1.772c-0.5-0.509-1.104-0.902-1.772-1.153c-0.636-0.247-1.363-0.416-2.427-0.465
	c-1.067-0.048-1.407-0.06-4.123-0.06C9.284,2.994,8.944,3.006,7.877,3.054z M7.861,4.282C8.324,3.98,8.455,3.361,8.153,2.898
	L6.564,0.46C6.262-0.003,5.642-0.134,5.18,0.168C4.717,0.47,4.587,1.089,4.888,1.552L6.478,3.99C6.669,4.285,6.99,4.444,7.316,4.444
	C7.503,4.444,7.693,4.392,7.861,4.282z M17.003,3.99l1.589-2.438c0.302-0.463,0.171-1.082-0.292-1.384
	c-0.465-0.302-1.083-0.172-1.384,0.292l-1.589,2.438c-0.302,0.463-0.171,1.082,0.292,1.384c0.169,0.11,0.357,0.162,0.545,0.162
	C16.491,4.444,16.812,4.285,17.003,3.99z"/>
</svg>
