<?xml version="1.0" encoding="iso-8859-1"?>
<!-- Generator: Adobe Illustrator 23.0.1, SVG Export Plug-In . SVG Version: 6.00 Build 0)  -->
<svg version="1.1" id="&#x56FE;&#x5C42;_1" xmlns="http://www.w3.org/2000/svg" xmlns:xlink="http://www.w3.org/1999/xlink" x="0px"
	 y="0px" viewBox="0 0 24 24" style="enable-background:new 0 0 24 24;" xml:space="preserve">
<path style="fill:#231815;" d="M6.375,4.152c0,1.203-1.009,2.152-2.208,2.152S1.959,5.354,1.959,4.152C1.959,2.949,2.968,2,4.167,2
	S6.375,2.949,6.375,4.152z M21.959,22h-4.29v-7.595c0-1.962-0.694-2.975-2.082-2.975c-1.136,0-1.83,0.57-2.145,1.646V22h-4.29
	c0,0,0.063-12.848,0-14.304h3.602l-0.006,2.848h0.063c0.883-1.456,2.271-2.405,4.227-2.405c1.451,0,2.65,0.38,3.533,1.456
	c0.883,1.013,1.388,2.405,1.388,4.304V22z M6.312,22h-4.29V7.696h4.29V22z"/>
</svg>
